<svg id="Capa_1" data-name="Capa 1" xmlns="http://www.w3.org/2000/svg" xmlns:xlink="http://www.w3.org/1999/xlink" viewBox="0 0 129.01 128.57"><defs><style>.cls-1{fill:none;}.cls-2{fill:#10312b;}.cls-3{clip-path:url(#clip-path);}.cls-4{fill:#1a5632;}.cls-5{fill:#1d8649;}.cls-6{fill:#3dae2b;}.cls-7{fill:#aada91;}.cls-8{fill:#54565a;}</style><clipPath id="clip-path" transform="translate(-46.33 -46.43)"><polygon class="cls-1" points="106.53 136.74 162.44 136.74 134.49 87.71 106.53 136.74"/></clipPath></defs><title>capiro</title><polygon class="cls-2" points="0 115.01 0 96.64 11.97 96.64 11.97 100.38 4.15 100.38 4.15 103.86 11.54 103.86 11.54 107.41 4.15 107.41 4.15 111.22 12.42 111.22 12.42 115.01 0 115.01"/><polygon class="cls-2" points="15.26 115.01 15.26 96.64 19.59 96.64 19.59 111.14 26.48 111.14 26.48 115.01 15.26 115.01"/><path class="cls-2" d="M93.25,161.12a9.37,9.37,0,0,1-4,.81,10.12,10.12,0,0,1-3.81-.7,8.85,8.85,0,0,1-3-2,9.4,9.4,0,0,1-2-3.07,10.52,10.52,0,0,1-.73-4,10.21,10.21,0,0,1,.75-4,8.79,8.79,0,0,1,2-3.05,9.14,9.14,0,0,1,3.07-1.93,10.55,10.55,0,0,1,3.8-.68,10.41,10.41,0,0,1,3.71.69,7.12,7.12,0,0,1,2.95,2l-2.91,3A3.74,3.74,0,0,0,91.49,147a5,5,0,0,0-5.71,1.19,5.45,5.45,0,0,0-1,1.78,6.46,6.46,0,0,0-.38,2.24,6.75,6.75,0,0,0,.38,2.29,5.34,5.34,0,0,0,1,1.77,4.74,4.74,0,0,0,1.6,1.16,5,5,0,0,0,2,.41,4.55,4.55,0,0,0,2.24-.52A4.29,4.29,0,0,0,93.18,156l3,2.91a8.62,8.62,0,0,1-2.92,2.22" transform="translate(-46.33 -46.43)"/><path class="cls-2" d="M109.77,161.44l-1.38-3.6H101.5l-1.31,3.6H95.51L103,143.08h4.18l7.39,18.36ZM105,148l-2.26,6.3h4.48Z" transform="translate(-46.33 -46.43)"/><path class="cls-2" d="M129.53,148.73a5.84,5.84,0,0,1-.57,2.71,4.9,4.9,0,0,1-1.56,1.78,6.65,6.65,0,0,1-2.27,1,11.07,11.07,0,0,1-2.66.32h-2.14v6.92H116V143.08h6.54a12.49,12.49,0,0,1,2.73.29,6.42,6.42,0,0,1,2.21,1,4.57,4.57,0,0,1,1.48,1.74,5.92,5.92,0,0,1,.54,2.66m-4.3,0a2,2,0,0,0-.25-1.07,1.85,1.85,0,0,0-.68-.65,3.09,3.09,0,0,0-1-.31,8.22,8.22,0,0,0-1.12-.07h-1.89V151h1.81a6.25,6.25,0,0,0,1.16-.11,3.07,3.07,0,0,0,1-.36,1.9,1.9,0,0,0,.69-.69,2,2,0,0,0,.25-1.07" transform="translate(-46.33 -46.43)"/><rect class="cls-2" x="85.79" y="96.64" width="4.32" height="18.37"/><path class="cls-2" d="M149.65,161.44l-3.87-7.29h-1.46v7.29h-4.2V143.08h6.79a11.54,11.54,0,0,1,2.5.27,6.48,6.48,0,0,1,2.19.92,4.71,4.71,0,0,1,1.54,1.71,5.44,5.44,0,0,1,.58,2.65,5,5,0,0,1-1,3.14,5.35,5.35,0,0,1-2.71,1.81l4.65,7.86Zm-.18-12.73a1.71,1.71,0,0,0-.95-1.68,3,3,0,0,0-.93-.3,7,7,0,0,0-1-.07h-2.3v4.28h2.05a5.89,5.89,0,0,0,1.09-.1,3.32,3.32,0,0,0,1-.32,2,2,0,0,0,.74-.67,2.1,2.1,0,0,0,.29-1.14" transform="translate(-46.33 -46.43)"/><path class="cls-2" d="M175.34,152.18a10.64,10.64,0,0,1-.72,4,9.28,9.28,0,0,1-2,3.09,8.77,8.77,0,0,1-3.08,2,11,11,0,0,1-7.73,0,8.92,8.92,0,0,1-3.07-2,9.1,9.1,0,0,1-2-3.09,10.45,10.45,0,0,1-.73-4,10.3,10.3,0,0,1,.73-4,8.62,8.62,0,0,1,2-3,9.07,9.07,0,0,1,3.07-1.92,11.32,11.32,0,0,1,7.73,0,8.92,8.92,0,0,1,3.08,1.92,8.78,8.78,0,0,1,2,3,10.49,10.49,0,0,1,.72,4m-4.6,0a6.52,6.52,0,0,0-.37-2.23,5.52,5.52,0,0,0-1.05-1.78,4.72,4.72,0,0,0-1.61-1.16,4.86,4.86,0,0,0-2.07-.43,4.78,4.78,0,0,0-2.06.43,4.92,4.92,0,0,0-1.61,1.16,5.34,5.34,0,0,0-1.05,1.78,7.12,7.12,0,0,0,0,4.53,5.49,5.49,0,0,0,1,1.8,4.83,4.83,0,0,0,1.6,1.18,4.95,4.95,0,0,0,5.73-1.18,5.53,5.53,0,0,0,1.06-1.8,6.81,6.81,0,0,0,.37-2.3" transform="translate(-46.33 -46.43)"/><polygon class="cls-2" points="18.65 90.31 12.9 90.31 64.41 0 88.15 41.28 60.2 90.31 54.45 90.31 81.56 42.78 64.41 10.08 18.65 90.31"/><g class="cls-3"><rect class="cls-2" x="59.14" y="17.9" width="11.8" height="95.78"/><rect class="cls-4" x="70.95" y="17.9" width="11.81" height="95.78"/><rect class="cls-5" x="82.75" y="17.9" width="11.8" height="95.78"/><rect class="cls-6" x="94.56" y="17.9" width="11.81" height="95.78"/><rect class="cls-7" x="106.36" y="17.9" width="11.8" height="95.78"/></g><path class="cls-8" d="M46.36,168.41h1.82a4,4,0,0,1,.89.1,2,2,0,0,1,.68.32,1.37,1.37,0,0,1,.44.54,1.64,1.64,0,0,1,.16.76,1.6,1.6,0,0,1-.16.75,1.39,1.39,0,0,1-.45.54,2,2,0,0,1-.69.32,3.44,3.44,0,0,1-.89.11H47v3h-.66ZM47,171.3h1.1a2,2,0,0,0,1.18-.3,1,1,0,0,0,.39-.87,1,1,0,0,0-.41-.88,2.09,2.09,0,0,0-1.16-.28H47Z" transform="translate(-46.33 -46.43)"/><path class="cls-8" d="M52.92,174.84H52.2L55,168.41h.63l2.76,6.43h-.72l-.71-1.69H53.62Zm.94-2.29h2.83l-1.41-3.41Z" transform="translate(-46.33 -46.43)"/><path class="cls-8" d="M61.85,174.84h-.66v-6.43h1.89a4,4,0,0,1,.88.09,1.93,1.93,0,0,1,.7.3,1.4,1.4,0,0,1,.46.53,1.87,1.87,0,0,1,.16.8,1.5,1.5,0,0,1-.13.64,1.58,1.58,0,0,1-.34.5,1.51,1.51,0,0,1-.52.34,2.3,2.3,0,0,1-.65.17l1.88,3.06h-.8l-1.78-3H61.85Zm0-3.57H63A2.18,2.18,0,0,0,64.2,171a1,1,0,0,0,.43-.85,1.08,1.08,0,0,0-.12-.54,1,1,0,0,0-.33-.35,1.47,1.47,0,0,0-.51-.2A2.73,2.73,0,0,0,63,169H61.85Z" transform="translate(-46.33 -46.43)"/><path class="cls-8" d="M75.09,174.84H71.42a3.46,3.46,0,0,1-1.3-.25,3.13,3.13,0,0,1-1-.68,3.22,3.22,0,0,1-.68-1,3.75,3.75,0,0,1,0-2.64,3.08,3.08,0,0,1,.68-1,3,3,0,0,1,1-.69,3.46,3.46,0,0,1,1.3-.24,3.39,3.39,0,0,1,1.28.24,2.92,2.92,0,0,1,1,.69,3.08,3.08,0,0,1,.68,1,3.53,3.53,0,0,1,.25,1.32,3.26,3.26,0,0,1-.38,1.55,2.88,2.88,0,0,1-1.13,1.14v0h1.94Zm-6.23-3.3a2.93,2.93,0,0,0,.17,1,2.7,2.7,0,0,0,.51.87,2.17,2.17,0,0,0,.8.59,2.51,2.51,0,0,0,1.08.22,2.45,2.45,0,0,0,1.06-.22,2.29,2.29,0,0,0,.81-.59,2.7,2.7,0,0,0,.51-.87,2.94,2.94,0,0,0,.18-1,3,3,0,0,0-.18-1,2.65,2.65,0,0,0-.51-.86,2.43,2.43,0,0,0-1.87-.82,2.51,2.51,0,0,0-1.08.22,2.31,2.31,0,0,0-.8.6,2.65,2.65,0,0,0-.51.86,3,3,0,0,0-.17,1" transform="translate(-46.33 -46.43)"/><path class="cls-8" d="M80.41,175a2.47,2.47,0,0,1-1.19-.25,2.15,2.15,0,0,1-.73-.63,2.23,2.23,0,0,1-.38-.83,3.74,3.74,0,0,1-.11-.85v-4h.66v4a3.22,3.22,0,0,0,.09.76,2,2,0,0,0,.29.65,1.61,1.61,0,0,0,.54.46,2,2,0,0,0,1.66,0,1.61,1.61,0,0,0,.54-.46,2,2,0,0,0,.29-.65,3.22,3.22,0,0,0,.09-.76v-4h.66v4a3.74,3.74,0,0,1-.11.85,2.23,2.23,0,0,1-.38.83,2.1,2.1,0,0,1-.74.63,2.43,2.43,0,0,1-1.18.25" transform="translate(-46.33 -46.43)"/><polygon class="cls-8" points="40.68 127.82 44.12 127.82 44.12 128.41 40.03 128.41 40.03 121.98 44.01 121.98 44.01 122.56 40.68 122.56 40.68 124.77 43.8 124.77 43.8 125.35 40.68 125.35 40.68 127.82"/><polygon class="cls-8" points="52.08 127.82 55.52 127.82 55.52 128.41 51.43 128.41 51.43 121.98 55.41 121.98 55.41 122.56 52.08 122.56 52.08 124.77 55.2 124.77 55.2 125.35 52.08 125.35 52.08 127.82"/><polygon class="cls-8" points="61.86 127.3 61.87 127.3 64.02 121.98 65.02 121.98 65.02 128.41 64.36 128.41 64.36 122.82 64.35 122.82 62.02 128.41 61.68 128.41 59.35 122.82 59.34 122.82 59.34 128.41 58.68 128.41 58.68 121.98 59.68 121.98 61.86 127.3"/><path class="cls-8" d="M114.94,168.41h1.81a4,4,0,0,1,.89.1,2,2,0,0,1,.69.32,1.46,1.46,0,0,1,.44.54,1.78,1.78,0,0,1,.15.76,1.6,1.6,0,0,1-.16.75,1.37,1.37,0,0,1-.44.54,2,2,0,0,1-.69.32,3.58,3.58,0,0,1-.9.11h-1.14v3h-.65Zm.65,2.89h1.11a1.94,1.94,0,0,0,1.17-.3,1,1,0,0,0,.4-.87,1,1,0,0,0-.42-.88,2.08,2.08,0,0,0-1.15-.28h-1.11Z" transform="translate(-46.33 -46.43)"/><path class="cls-8" d="M122.73,174.84h-.65v-6.43H124a4,4,0,0,1,.87.09,1.86,1.86,0,0,1,.7.3,1.32,1.32,0,0,1,.46.53,1.73,1.73,0,0,1,.16.8,1.66,1.66,0,0,1-.12.64,1.61,1.61,0,0,1-.35.5,1.47,1.47,0,0,1-.51.34,2.29,2.29,0,0,1-.66.17l1.88,3.06h-.8l-1.78-3h-1.09Zm0-3.57h1.14a2.16,2.16,0,0,0,1.21-.29.94.94,0,0,0,.43-.85,1.08,1.08,0,0,0-.12-.54,1,1,0,0,0-.32-.35,1.47,1.47,0,0,0-.51-.2,2.76,2.76,0,0,0-.67-.07h-1.16Z" transform="translate(-46.33 -46.43)"/><polygon class="cls-8" points="83.72 127.82 87.16 127.82 87.16 128.41 83.06 128.41 83.06 121.98 87.05 121.98 87.05 122.56 83.72 122.56 83.72 124.77 86.83 124.77 86.83 125.35 83.72 125.35 83.72 127.82"/><path class="cls-8" d="M139.76,169.44a1.68,1.68,0,0,0-.53-.46,1.65,1.65,0,0,0-.79-.18,1.71,1.71,0,0,0-.49.07,1.42,1.42,0,0,0-.44.23,1.07,1.07,0,0,0-.44.91,1,1,0,0,0,.11.51,1.24,1.24,0,0,0,.31.34,1.9,1.9,0,0,0,.45.23l.52.18c.22.07.45.15.67.24a2.11,2.11,0,0,1,.61.33,1.59,1.59,0,0,1,.45.51,1.72,1.72,0,0,1,.17.8,1.78,1.78,0,0,1-.18.83,1.92,1.92,0,0,1-.48.57,1.85,1.85,0,0,1-.67.34,2.79,2.79,0,0,1-.76.11,2.86,2.86,0,0,1-.58-.06,2.53,2.53,0,0,1-.55-.18,1.66,1.66,0,0,1-.49-.3,2.21,2.21,0,0,1-.4-.41l.56-.42a1.82,1.82,0,0,0,.59.58,1.67,1.67,0,0,0,.88.23,1.8,1.8,0,0,0,.5-.08,1.35,1.35,0,0,0,.46-.24,1.14,1.14,0,0,0,.33-.39,1,1,0,0,0,.14-.54,1,1,0,0,0-.14-.55,1.12,1.12,0,0,0-.34-.38,2.59,2.59,0,0,0-.5-.25l-.59-.2c-.22-.06-.42-.14-.63-.22a2.29,2.29,0,0,1-.55-.33,1.54,1.54,0,0,1-.4-.51,1.61,1.61,0,0,1-.15-.73,1.55,1.55,0,0,1,.19-.8,1.63,1.63,0,0,1,.48-.56,2,2,0,0,1,.67-.31,2.53,2.53,0,0,1,.71-.1,2.41,2.41,0,0,1,1.12.23,1.91,1.91,0,0,1,.7.55Z" transform="translate(-46.33 -46.43)"/><path class="cls-8" d="M143.6,174.84h-.72l2.78-6.43h.64l2.76,6.43h-.73l-.71-1.69H144.3Zm.94-2.29h2.84L146,169.14Z" transform="translate(-46.33 -46.43)"/><path class="cls-8" d="M152.53,174.84h-.65v-6.43h1.89a4,4,0,0,1,.87.09,1.93,1.93,0,0,1,.7.3,1.32,1.32,0,0,1,.46.53,1.73,1.73,0,0,1,.16.8,1.66,1.66,0,0,1-.12.64,1.61,1.61,0,0,1-.35.5,1.51,1.51,0,0,1-.52.34,2.22,2.22,0,0,1-.65.17l1.88,3.06h-.8l-1.78-3h-1.09Zm0-3.57h1.14a2.16,2.16,0,0,0,1.21-.29.94.94,0,0,0,.43-.85,1.08,1.08,0,0,0-.12-.54,1,1,0,0,0-.33-.35,1.34,1.34,0,0,0-.5-.2,2.81,2.81,0,0,0-.67-.07h-1.16Z" transform="translate(-46.33 -46.43)"/><rect class="cls-8" x="112.86" y="121.98" width="0.65" height="6.43"/><path class="cls-8" d="M163.39,174.84h-.72l2.78-6.43h.63l2.76,6.43h-.72l-.71-1.69h-3.32Zm.94-2.29h2.83l-1.41-3.41Z" transform="translate(-46.33 -46.43)"/><polygon class="cls-8" points="125.98 127.82 128.98 127.82 128.98 128.41 125.33 128.41 125.33 121.98 125.98 121.98 125.98 127.82"/></svg>