<svg id="Capa_1" data-name="Capa 1" xmlns="http://www.w3.org/2000/svg" xmlns:xlink="http://www.w3.org/1999/xlink" viewBox="0 0 264.36 96.99"><defs><style>.cls-1{fill:none;}.cls-2{fill:#fff;}.cls-3{clip-path:url(#clip-path);}.cls-4{fill:#e0e2e2;}.cls-5{fill:#efefef;}.cls-6{fill:#f2f2f2;}.cls-7{fill:#f4f4f4;}.cls-8{fill:#f9f9f9;}</style><clipPath id="clip-path"><polygon id="SVGID" class="cls-1" points="57.11 81.8 101.25 81.8 79.18 43.1 57.11 81.8"/></clipPath></defs><title>capiro-white</title><polygon class="cls-2" points="98.63 51.72 98.63 29.65 113.01 29.65 113.01 34.14 103.61 34.14 103.61 38.33 112.49 38.33 112.49 42.59 103.61 42.59 103.61 47.17 113.55 47.17 113.55 51.72 98.63 51.72"/><polygon class="cls-2" points="116.96 51.72 116.96 29.65 122.17 29.65 122.17 47.07 130.45 47.07 130.45 51.72 116.96 51.72"/><path class="cls-2" d="M155,51.34a11.2,11.2,0,0,1-4.81,1,12.19,12.19,0,0,1-4.58-.84,10.53,10.53,0,0,1-3.6-2.4,11.44,11.44,0,0,1-2.41-3.69,12.54,12.54,0,0,1-.87-4.81,12.15,12.15,0,0,1,.9-4.8A10.43,10.43,0,0,1,142,32.1a11,11,0,0,1,3.69-2.32,12.76,12.76,0,0,1,9,0,8.61,8.61,0,0,1,3.54,2.41l-3.5,3.6a4.45,4.45,0,0,0-1.91-1.43A6,6,0,0,0,146,35.8a6.55,6.55,0,0,0-1.2,2.14,8,8,0,0,0-.46,2.69,8.27,8.27,0,0,0,.46,2.75,6.41,6.41,0,0,0,1.2,2.13,5.76,5.76,0,0,0,1.92,1.4,6.22,6.22,0,0,0,2.41.49,5.49,5.49,0,0,0,2.69-.63,5.11,5.11,0,0,0,1.87-1.58l3.61,3.49A10.44,10.44,0,0,1,155,51.35"/><path class="cls-2" d="M174.86,51.72,173.2,47.4h-8.28l-1.57,4.32h-5.63l9-22.06h5l8.88,22.06Zm-5.73-16.15-2.72,7.57h5.39Z"/><path class="cls-2" d="M198.6,36.45a6.93,6.93,0,0,1-.68,3.26,5.93,5.93,0,0,1-1.87,2.14,8.34,8.34,0,0,1-2.73,1.2,13.79,13.79,0,0,1-3.2.38h-2.57v8.32h-5.2V29.66h7.86a15.11,15.11,0,0,1,3.28.35,7.85,7.85,0,0,1,2.65,1.2,5.61,5.61,0,0,1,1.78,2.09,7.2,7.2,0,0,1,.65,3.2m-5.17,0a2.43,2.43,0,0,0-.3-1.29,2.27,2.27,0,0,0-.82-.78,3.57,3.57,0,0,0-1.2-.37,8.54,8.54,0,0,0-1.34-.08h-2.27v5.2h2.17a8.08,8.08,0,0,0,1.39-.13,3.74,3.74,0,0,0,1.21-.44,2.28,2.28,0,0,0,.83-.83,2.47,2.47,0,0,0,.3-1.28"/><rect class="cls-2" x="201.72" y="29.65" width="5.19" height="22.07"/><path class="cls-2" d="M222.78,51.72,218.13,43h-1.75v8.76h-5V29.66h8.16a13.72,13.72,0,0,1,3,.33,7.76,7.76,0,0,1,2.64,1.1A5.73,5.73,0,0,1,227,33.15a6.6,6.6,0,0,1,.69,3.18,5.94,5.94,0,0,1-1.2,3.77,6.41,6.41,0,0,1-3.25,2.18l5.58,9.44Zm-.21-15.29a2.06,2.06,0,0,0-1.15-2,3.61,3.61,0,0,0-1.11-.36,8.08,8.08,0,0,0-1.2-.09h-2.77v5.15h2.46a7.17,7.17,0,0,0,1.31-.12,4.28,4.28,0,0,0,1.21-.39,2.44,2.44,0,0,0,.89-.8,2.54,2.54,0,0,0,.34-1.37"/><path class="cls-2" d="M253.65,40.6a12.71,12.71,0,0,1-.86,4.8,11.14,11.14,0,0,1-2.41,3.72,10.55,10.55,0,0,1-3.7,2.4,13.26,13.26,0,0,1-9.29,0,10.63,10.63,0,0,1-6.09-6.12,12.52,12.52,0,0,1-.87-4.8,12.35,12.35,0,0,1,.87-4.81,10.36,10.36,0,0,1,2.41-3.61,10.94,10.94,0,0,1,3.68-2.3,13.61,13.61,0,0,1,9.29,0,10.62,10.62,0,0,1,3.7,2.3,10.45,10.45,0,0,1,2.41,3.61,12.53,12.53,0,0,1,.86,4.81m-5.52,0a8.11,8.11,0,0,0-.45-2.68,6.51,6.51,0,0,0-1.26-2.14,6.14,6.14,0,0,0-6.9-1.4,5.94,5.94,0,0,0-1.93,1.4,6.18,6.18,0,0,0-1.26,2.14,8.45,8.45,0,0,0,0,5.44,6.47,6.47,0,0,0,1.2,2.16,5.72,5.72,0,0,0,1.92,1.42,6,6,0,0,0,6.89-1.42,6.62,6.62,0,0,0,1.27-2.16,8.1,8.1,0,0,0,.44-2.76"/><path class="cls-2" d="M98.66,60.1h2.19a4.81,4.81,0,0,1,1.07.12,2.78,2.78,0,0,1,.82.38,1.65,1.65,0,0,1,.52.65,2,2,0,0,1,.2.92,1.88,1.88,0,0,1-.2.9,1.62,1.62,0,0,1-.54.65,2.32,2.32,0,0,1-.83.38,3.83,3.83,0,0,1-1.07.13H99.43v3.61h-.79Zm.77,3.47h1.32a2.36,2.36,0,0,0,1.42-.36,1.39,1.39,0,0,0,0-2.1,2.55,2.55,0,0,0-1.4-.34H99.43Z"/><path class="cls-2" d="M106.54,67.83h-.86L109,60.1h.76l3.32,7.73h-.87l-.85-2h-4Zm1.13-2.76h3.4L109.38,61Z"/><path class="cls-2" d="M117.28,67.83h-.8V60.1h2.27a4.71,4.71,0,0,1,1.06.11,2.17,2.17,0,0,1,.84.36,1.55,1.55,0,0,1,.55.64,2.27,2.27,0,0,1,.2,1,1.9,1.9,0,0,1-.16.77,2,2,0,0,1-.41.6,1.94,1.94,0,0,1-.62.4,2.65,2.65,0,0,1-.78.21l2.26,3.68h-1l-2.13-3.61h-1.31Zm0-4.29h1.38a2.59,2.59,0,0,0,1.44-.33,1.21,1.21,0,0,0,.52-1,1.24,1.24,0,0,0-.15-.65,1.21,1.21,0,0,0-.39-.42,1.74,1.74,0,0,0-.62-.24,3.06,3.06,0,0,0-.8-.07h-1.38Z"/><path class="cls-2" d="M133.19,67.83h-4.41a4.21,4.21,0,0,1-1.57-.3,3.94,3.94,0,0,1-1.2-.82,4.13,4.13,0,0,1-.82-1.2,4.58,4.58,0,0,1,0-3.18,3.77,3.77,0,0,1,.82-1.2,3.85,3.85,0,0,1,1.2-.83,4.2,4.2,0,0,1,1.57-.28,4,4,0,0,1,1.53.28,3.63,3.63,0,0,1,1.21.83,3.91,3.91,0,0,1,.81,1.2,4.16,4.16,0,0,1,.3,1.59,3.87,3.87,0,0,1-.45,1.86,3.51,3.51,0,0,1-1.36,1.37h2.33Zm-7.49-4a3.73,3.73,0,0,0,.2,1.2,3.28,3.28,0,0,0,.62,1,2.59,2.59,0,0,0,1,.71,3.05,3.05,0,0,0,1.3.26,3,3,0,0,0,1.27-.26,2.83,2.83,0,0,0,1-.71,3.28,3.28,0,0,0,.62-1,3.53,3.53,0,0,0,0-2.4,3.18,3.18,0,0,0-.62-1,2.89,2.89,0,0,0-2.24-1,3.05,3.05,0,0,0-1.3.26,2.76,2.76,0,0,0-1,.73,3.18,3.18,0,0,0-.62,1,3.78,3.78,0,0,0-.2,1.2"/><path class="cls-2" d="M139.58,68a2.92,2.92,0,0,1-1.43-.3,2.48,2.48,0,0,1-.88-.76,2.85,2.85,0,0,1-.46-1,4.91,4.91,0,0,1-.13-1v-4.8h.8v4.8a4.05,4.05,0,0,0,.1.92,2.6,2.6,0,0,0,.35.78,1.91,1.91,0,0,0,.65.55,2.41,2.41,0,0,0,2,0,1.88,1.88,0,0,0,.64-.55,2.37,2.37,0,0,0,.35-.78,3.56,3.56,0,0,0,.11-.92v-4.8h.79v4.8a3.86,3.86,0,0,1-.13,1,2.66,2.66,0,0,1-.45,1,2.6,2.6,0,0,1-.89.76,2.91,2.91,0,0,1-1.42.3"/><polygon class="cls-2" points="147.51 67.12 151.64 67.12 151.64 67.83 146.73 67.83 146.73 60.1 151.51 60.1 151.51 60.8 147.51 60.8 147.51 63.45 151.26 63.45 151.26 64.15 147.51 64.15 147.51 67.12"/><polygon class="cls-2" points="161.21 67.12 165.34 67.12 165.34 67.83 160.43 67.83 160.43 60.1 165.21 60.1 165.21 60.8 161.21 60.8 161.21 63.45 164.96 63.45 164.96 64.15 161.21 64.15 161.21 67.12"/><polygon class="cls-2" points="172.96 66.49 172.97 66.49 175.56 60.1 176.76 60.1 176.76 67.83 175.97 67.83 175.97 61.11 175.95 61.11 173.15 67.83 172.75 67.83 169.94 61.11 169.93 61.11 169.93 67.83 169.14 67.83 169.14 60.1 170.34 60.1 172.96 66.49"/><path class="cls-2" d="M181.07,60.1h2.18a4.81,4.81,0,0,1,1.07.12,2.32,2.32,0,0,1,.83.38,1.83,1.83,0,0,1,.52.65,2.07,2.07,0,0,1,.18.92,1.87,1.87,0,0,1-.19.9,1.59,1.59,0,0,1-.53.65,2.32,2.32,0,0,1-.83.38,3.9,3.9,0,0,1-1.08.13h-1.37v3.61h-.78Zm.78,3.47h1.34a2.32,2.32,0,0,0,1.4-.36,1.37,1.37,0,0,0,0-2.1,2.57,2.57,0,0,0-1.38-.34h-1.34Z"/><path class="cls-2" d="M190.43,67.83h-.78V60.1H192a4.54,4.54,0,0,1,1,.11,2.21,2.21,0,0,1,.85.36,1.63,1.63,0,0,1,.55.64,2.12,2.12,0,0,1,.19,1,2.06,2.06,0,0,1-.14.77,2.24,2.24,0,0,1-.42.6,1.94,1.94,0,0,1-.62.4,2.72,2.72,0,0,1-.79.21l2.26,3.68h-1l-2.14-3.61h-1.31Zm0-4.29h1.37a2.66,2.66,0,0,0,1.46-.35,1.12,1.12,0,0,0,.51-1,1.32,1.32,0,0,0-.14-.65,1.1,1.1,0,0,0-.38-.42,1.74,1.74,0,0,0-.62-.24,3.57,3.57,0,0,0-.8-.09h-1.4Z"/><polygon class="cls-2" points="199.23 67.12 203.36 67.12 203.36 67.83 198.44 67.83 198.44 60.1 203.23 60.1 203.23 60.8 199.23 60.8 199.23 63.45 202.97 63.45 202.97 64.15 199.23 64.15 199.23 67.12"/><path class="cls-2" d="M210.9,61.34a2,2,0,0,0-.64-.56,1.94,1.94,0,0,0-.95-.21,2.33,2.33,0,0,0-.59.08,1.8,1.8,0,0,0-.53.28,1.28,1.28,0,0,0-.52,1.09,1.12,1.12,0,0,0,.13.62,1.56,1.56,0,0,0,.37.4,2.31,2.31,0,0,0,.54.28l.63.22c.26.08.54.18.8.28a2.72,2.72,0,0,1,.73.4,1.75,1.75,0,0,1,.54.61,2,2,0,0,1,.21,1,2.14,2.14,0,0,1-.22,1,2.24,2.24,0,0,1-.57.69,2.3,2.3,0,0,1-.81.41,3.51,3.51,0,0,1-.91.13,4.05,4.05,0,0,1-.7-.07,3,3,0,0,1-.66-.22,1.87,1.87,0,0,1-.59-.36,2.78,2.78,0,0,1-.48-.49l.67-.51a2.26,2.26,0,0,0,.71.7,2.08,2.08,0,0,0,1.06.28,2.43,2.43,0,0,0,.6-.1,1.61,1.61,0,0,0,.55-.29,1.31,1.31,0,0,0,.4-.47,1.22,1.22,0,0,0,.17-.65,1.19,1.19,0,0,0-.17-.66,1.27,1.27,0,0,0-.41-.45,2.41,2.41,0,0,0-.6-.3l-.71-.24c-.26-.08-.5-.17-.76-.27a2.65,2.65,0,0,1-.66-.4,1.81,1.81,0,0,1-.48-.61,1.88,1.88,0,0,1-.18-.88,1.92,1.92,0,0,1,.23-1,2.07,2.07,0,0,1,.58-.67,2.34,2.34,0,0,1,.8-.37,3.13,3.13,0,0,1,.86-.12,2.83,2.83,0,0,1,1.34.27,2.27,2.27,0,0,1,.84.66Z"/><path class="cls-2" d="M215.51,67.83h-.86L218,60.1h.77l3.31,7.73h-.87l-.86-2h-4Zm1.13-2.76h3.41L218.4,61Z"/><path class="cls-2" d="M226.24,67.83h-.78V60.1h2.27a4.62,4.62,0,0,1,1.05.11,2.17,2.17,0,0,1,.84.36,1.55,1.55,0,0,1,.55.64,2.12,2.12,0,0,1,.2,1,2.07,2.07,0,0,1-.15.77,2,2,0,0,1-.42.6,1.94,1.94,0,0,1-.62.4,2.72,2.72,0,0,1-.79.21l2.26,3.68h-1l-2.14-3.61h-1.31Zm0-4.29h1.37a2.66,2.66,0,0,0,1.46-.35,1.12,1.12,0,0,0,.51-1,1.32,1.32,0,0,0-.14-.65,1.15,1.15,0,0,0-.4-.42,1.58,1.58,0,0,0-.6-.24,3.57,3.57,0,0,0-.8-.09h-1.4Z"/><rect class="cls-2" x="234.25" y="60.1" width="0.78" height="7.73"/><path class="cls-2" d="M239.29,67.83h-.86l3.34-7.73h.76l3.31,7.73H245l-.86-2h-4Zm1.13-2.76h3.4L242.13,61Z"/><polygon class="cls-2" points="250.01 67.12 253.62 67.12 253.62 67.83 249.23 67.83 249.23 60.1 250.01 60.1 250.01 67.12"/><polygon class="cls-2" points="24.32 81.8 19.78 81.8 60.44 10.51 79.18 43.1 57.11 81.8 52.58 81.8 73.97 44.28 60.44 18.47 24.32 81.8"/><g class="cls-3"><rect class="cls-4" x="56.28" y="24.64" width="9.31" height="75.6"/><rect class="cls-5" x="65.6" y="24.64" width="9.32" height="75.6"/><rect class="cls-6" x="74.91" y="24.64" width="9.31" height="75.6"/><rect class="cls-7" x="84.24" y="24.64" width="9.32" height="75.6"/><rect class="cls-8" x="93.55" y="24.64" width="9.31" height="75.6"/></g></svg>