<?xml version="1.0" encoding="utf-8"?>
<!-- Generator: Adobe Illustrator 24.0.0, SVG Export Plug-In . SVG Version: 6.00 Build 0)  -->
<svg version="1.1" id="Capa_1" xmlns="http://www.w3.org/2000/svg" xmlns:xlink="http://www.w3.org/1999/xlink" x="0px" y="0px"
	 viewBox="0 0 264.4 97" style="enable-background:new 0 0 264.4 97;" xml:space="preserve">
<style type="text/css">
	.st0{fill:#10312B;}
	.st1{clip-path:url(#SVGID_2_);}
	.st2{fill:#1A5632;}
	.st3{fill:#1D8649;}
	.st4{fill:#3DAE2B;}
	.st5{fill:#AADA91;}
	.st6{fill:#54565A;}
</style>
<title>capiro</title>
<polygon class="st0" points="24.5,82.2 19.9,82.2 61,10.1 79.9,43.1 57.6,82.2 53,82.2 74.7,44.3 61,18.2 "/>
<g>
	<defs>
		<polygon id="SVGID_1_" points="57.6,82.2 102.2,82.2 79.9,43.1 		"/>
	</defs>
	<clipPath id="SVGID_2_">
		<use xlink:href="#SVGID_1_"  style="overflow:visible;"/>
	</clipPath>
	<g class="st1">
		<rect x="56.8" y="24.4" class="st0" width="9.4" height="76.4"/>
		<rect x="66.2" y="24.4" class="st2" width="9.4" height="76.4"/>
		<rect x="75.6" y="24.4" class="st3" width="9.4" height="76.4"/>
		<rect x="85.1" y="24.4" class="st4" width="9.4" height="76.4"/>
		<rect x="94.5" y="24.4" class="st5" width="9.4" height="76.4"/>
	</g>
</g>
<g>
	<polygon class="st0" points="98.6,51.7 98.6,29.6 113,29.6 113,34.1 103.6,34.1 103.6,38.3 112.5,38.3 112.5,42.6 103.6,42.6 
		103.6,47.2 113.6,47.2 113.6,51.7 	"/>
	<polygon class="st0" points="117,51.7 117,29.6 122.2,29.6 122.2,47.1 130.4,47.1 130.4,51.7 	"/>
	<path class="st0" d="M155,51.3c-1.5,0.7-3.2,1-4.8,1c-1.6,0-3.1-0.3-4.6-0.8c-1.4-0.5-2.6-1.4-3.6-2.4c-1-1.1-1.9-2.3-2.4-3.7
		c-0.6-1.5-0.9-3.2-0.9-4.8c0-1.6,0.3-3.3,0.9-4.8c0.5-1.4,1.4-2.6,2.4-3.7c1.1-1,2.3-1.8,3.7-2.3c1.5-0.6,3-0.8,4.6-0.8
		c1.5,0,3,0.3,4.5,0.8c1.4,0.5,2.6,1.3,3.5,2.4l-3.5,3.6c-0.5-0.6-1.2-1.1-1.9-1.4c-2.4-1-5.1-0.5-6.9,1.4c-0.5,0.6-0.9,1.4-1.2,2.1
		c-0.3,0.9-0.5,1.8-0.5,2.7c0,0.9,0.1,1.9,0.5,2.8c0.3,0.8,0.7,1.5,1.2,2.1c0.5,0.6,1.2,1.1,1.9,1.4c0.8,0.3,1.6,0.5,2.4,0.5
		c0.9,0,1.9-0.2,2.7-0.6c0.7-0.4,1.4-0.9,1.9-1.6l3.6,3.5C157.6,49.8,156.4,50.7,155,51.3"/>
	<path class="st0" d="M174.9,51.7l-1.7-4.3h-8.3l-1.6,4.3h-5.6l9-22.1h5l8.9,22.1H174.9z M169.1,35.6l-2.7,7.6h5.4L169.1,35.6z"/>
	<path class="st0" d="M198.6,36.5c0,1.1-0.2,2.2-0.7,3.3c-0.4,0.9-1.1,1.6-1.9,2.1c-0.8,0.6-1.8,1-2.7,1.2c-1,0.3-2.1,0.4-3.2,0.4
		h-2.6v8.3h-5.2V29.7h7.9c1.1,0,2.2,0.1,3.3,0.3c1,0.2,1.9,0.6,2.7,1.2c0.8,0.5,1.4,1.3,1.8,2.1C198.4,34.3,198.6,35.4,198.6,36.5
		 M193.4,36.5c0-0.4-0.1-0.9-0.3-1.3c-0.2-0.3-0.5-0.6-0.8-0.8c-0.4-0.2-0.8-0.3-1.2-0.4c-0.4-0.1-0.9-0.1-1.3-0.1h-2.3v5.2h2.2
		c0.5,0,0.9,0,1.4-0.1c0.4-0.1,0.8-0.2,1.2-0.4c0.3-0.2,0.6-0.5,0.8-0.8C193.3,37.4,193.4,36.9,193.4,36.5"/>
	<rect x="201.7" y="29.6" class="st0" width="5.2" height="22.1"/>
	<path class="st0" d="M222.8,51.7l-4.7-8.8h-1.8v8.8h-5V29.7h8.2c1,0,2,0.1,3,0.3c0.9,0.2,1.8,0.6,2.6,1.1c0.8,0.5,1.4,1.2,1.9,2.1
		c0.5,1,0.7,2.1,0.7,3.2c0,1.4-0.4,2.7-1.2,3.8c-0.8,1-2,1.8-3.3,2.2l5.6,9.4H222.8z M222.6,36.4c0.1-0.8-0.4-1.6-1.1-2
		c-0.4-0.2-0.7-0.3-1.1-0.4c-0.4-0.1-0.8-0.1-1.2-0.1h-2.8v5.1h2.5c0.4,0,0.9,0,1.3-0.1c0.4-0.1,0.8-0.2,1.2-0.4
		c0.4-0.2,0.7-0.5,0.9-0.8C222.4,37.4,222.6,36.9,222.6,36.4"/>
	<path class="st0" d="M253.7,40.6c0,1.6-0.3,3.3-0.9,4.8c-0.5,1.4-1.4,2.6-2.4,3.7c-1.1,1.1-2.3,1.9-3.7,2.4c-3,1.1-6.3,1.1-9.3,0
		c-1.4-0.5-2.6-1.4-3.7-2.4c-1-1.1-1.9-2.3-2.4-3.7c-0.6-1.5-0.9-3.2-0.9-4.8c0-1.6,0.3-3.3,0.9-4.8c0.5-1.4,1.4-2.6,2.4-3.6
		c1.1-1,2.3-1.8,3.7-2.3c3-1.1,6.3-1.1,9.3,0c1.4,0.5,2.6,1.3,3.7,2.3c1,1,1.9,2.3,2.4,3.6C253.4,37.3,253.7,39,253.7,40.6
		 M248.1,40.6c0-0.9-0.1-1.8-0.4-2.7c-0.3-0.8-0.7-1.5-1.3-2.1c-0.5-0.6-1.2-1.1-1.9-1.4c-0.8-0.4-1.6-0.5-2.5-0.5
		c-0.9,0-1.7,0.2-2.5,0.5c-0.7,0.3-1.4,0.8-1.9,1.4c-0.6,0.6-1,1.4-1.3,2.1c-0.6,1.8-0.6,3.7,0,5.4c0.3,0.8,0.7,1.5,1.2,2.2
		c0.5,0.6,1.2,1.1,1.9,1.4c2.4,1.1,5.1,0.5,6.9-1.4c0.6-0.6,1-1.4,1.3-2.2C247.9,42.5,248.1,41.5,248.1,40.6"/>
	<path class="st6" d="M98.7,60.1h2.2c0.4,0,0.7,0,1.1,0.1c0.3,0.1,0.6,0.2,0.8,0.4c0.2,0.2,0.4,0.4,0.5,0.6c0.1,0.3,0.2,0.6,0.2,0.9
		c0,0.3-0.1,0.6-0.2,0.9c-0.1,0.3-0.3,0.5-0.5,0.6c-0.2,0.2-0.5,0.3-0.8,0.4c-0.3,0.1-0.7,0.1-1.1,0.1h-1.4v3.6h-0.8L98.7,60.1z
		 M99.4,63.6h1.3c0.5,0,1-0.1,1.4-0.4c0.3-0.2,0.5-0.6,0.5-1c0-0.4-0.2-0.8-0.5-1.1c-0.4-0.2-0.9-0.4-1.4-0.3h-1.3V63.6z"/>
	<path class="st6" d="M106.5,67.8h-0.9l3.4-7.7h0.8l3.3,7.7h-0.9l-0.9-2h-4L106.5,67.8z M107.7,65.1h3.4l-1.7-4.1L107.7,65.1z"/>
	<path class="st6" d="M117.3,67.8h-0.8v-7.7h2.3c0.4,0,0.7,0,1.1,0.1c0.3,0.1,0.6,0.2,0.8,0.4c0.2,0.2,0.4,0.4,0.6,0.6
		c0.1,0.3,0.2,0.6,0.2,1c0,0.3,0,0.5-0.2,0.8c-0.1,0.2-0.2,0.4-0.4,0.6c-0.2,0.2-0.4,0.3-0.6,0.4c-0.2,0.1-0.5,0.2-0.8,0.2l2.3,3.7
		h-1l-2.1-3.6h-1.3V67.8z M117.3,63.5h1.4c0.5,0,1-0.1,1.4-0.3c0.3-0.2,0.5-0.6,0.5-1c0-0.2,0-0.4-0.1-0.6c-0.1-0.2-0.2-0.3-0.4-0.4
		c-0.2-0.1-0.4-0.2-0.6-0.2c-0.3-0.1-0.5-0.1-0.8-0.1h-1.4V63.5z"/>
	<path class="st6" d="M133.2,67.8h-4.4c-0.5,0-1.1-0.1-1.6-0.3c-0.4-0.2-0.9-0.5-1.2-0.8c-0.3-0.3-0.6-0.8-0.8-1.2
		c-0.4-1-0.4-2.1,0-3.2c0.2-0.5,0.5-0.9,0.8-1.2c0.3-0.4,0.7-0.6,1.2-0.8c0.5-0.2,1-0.3,1.6-0.3c0.5,0,1,0.1,1.5,0.3
		c0.5,0.2,0.9,0.5,1.2,0.8c0.3,0.3,0.6,0.8,0.8,1.2c0.2,0.5,0.3,1,0.3,1.6c0,0.6-0.2,1.3-0.5,1.9c-0.3,0.6-0.8,1.1-1.4,1.4l0,0h2.3
		L133.2,67.8z M125.7,63.9c0,0.4,0.1,0.8,0.2,1.2c0.1,0.4,0.3,0.7,0.6,1c0.3,0.3,0.6,0.6,1,0.7c0.4,0.2,0.9,0.3,1.3,0.3
		c0.4,0,0.9-0.1,1.3-0.3c0.4-0.2,0.7-0.4,1-0.7c0.3-0.3,0.5-0.7,0.6-1c0.1-0.4,0.2-0.8,0.2-1.2c0-0.4-0.1-0.8-0.2-1.2
		c-0.1-0.4-0.3-0.7-0.6-1c-0.6-0.6-1.4-1-2.2-1c-0.4,0-0.9,0.1-1.3,0.3c-0.4,0.2-0.7,0.4-1,0.7c-0.3,0.3-0.5,0.7-0.6,1
		C125.8,63,125.7,63.5,125.7,63.9"/>
	<path class="st6" d="M139.6,68c-0.5,0-1-0.1-1.4-0.3c-0.3-0.2-0.6-0.4-0.9-0.8c-0.2-0.3-0.4-0.6-0.5-1c-0.1-0.3-0.1-0.7-0.1-1v-4.8
		h0.8v4.8c0,0.3,0,0.6,0.1,0.9c0.1,0.3,0.2,0.5,0.3,0.8c0.2,0.2,0.4,0.4,0.6,0.6c0.6,0.3,1.4,0.3,2,0c0.3-0.1,0.5-0.3,0.6-0.6
		c0.2-0.2,0.3-0.5,0.3-0.8c0.1-0.3,0.1-0.6,0.1-0.9v-4.8h0.8v4.8c0,0.3,0,0.7-0.1,1c-0.1,0.4-0.2,0.7-0.5,1
		c-0.2,0.3-0.5,0.6-0.9,0.8C140.6,67.9,140.1,68,139.6,68"/>
	<polygon class="st6" points="147.5,67.1 151.6,67.1 151.6,67.8 146.7,67.8 146.7,60.1 151.5,60.1 151.5,60.8 147.5,60.8 
		147.5,63.5 151.3,63.5 151.3,64.1 147.5,64.1 	"/>
	<polygon class="st6" points="161.2,67.1 165.3,67.1 165.3,67.8 160.4,67.8 160.4,60.1 165.2,60.1 165.2,60.8 161.2,60.8 
		161.2,63.5 165,63.5 165,64.1 161.2,64.1 	"/>
	<polygon class="st6" points="173,66.5 173,66.5 175.6,60.1 176.8,60.1 176.8,67.8 176,67.8 176,61.1 176,61.1 173.2,67.8 
		172.7,67.8 169.9,61.1 169.9,61.1 169.9,67.8 169.1,67.8 169.1,60.1 170.3,60.1 	"/>
	<path class="st6" d="M181.1,60.1h2.2c0.4,0,0.7,0,1.1,0.1c0.3,0.1,0.6,0.2,0.8,0.4c0.2,0.2,0.4,0.4,0.5,0.6
		c0.1,0.3,0.2,0.6,0.2,0.9c0,0.3-0.1,0.6-0.2,0.9c-0.1,0.3-0.3,0.5-0.5,0.6c-0.2,0.2-0.5,0.3-0.8,0.4c-0.4,0.1-0.7,0.1-1.1,0.1h-1.4
		v3.6h-0.8V60.1z M181.9,63.6h1.3c0.5,0,1-0.1,1.4-0.4c0.3-0.2,0.5-0.6,0.5-1c0-0.4-0.2-0.8-0.5-1.1c-0.4-0.2-0.9-0.4-1.4-0.3h-1.3
		V63.6z"/>
	<path class="st6" d="M190.4,67.8h-0.8v-7.7h2.3c0.4,0,0.7,0,1,0.1c0.3,0.1,0.6,0.2,0.8,0.4c0.2,0.2,0.4,0.4,0.6,0.6
		c0.1,0.3,0.2,0.6,0.2,1c0,0.3,0,0.5-0.1,0.8c-0.1,0.2-0.2,0.4-0.4,0.6c-0.2,0.2-0.4,0.3-0.6,0.4c-0.3,0.1-0.5,0.2-0.8,0.2l2.3,3.7
		h-1l-2.1-3.6h-1.3L190.4,67.8z M190.4,63.5h1.4c0.5,0,1-0.1,1.5-0.3c0.3-0.2,0.5-0.6,0.5-1c0-0.2,0-0.4-0.1-0.6
		c-0.1-0.2-0.2-0.3-0.4-0.4c-0.2-0.1-0.4-0.2-0.6-0.2c-0.3-0.1-0.5-0.1-0.8-0.1h-1.4V63.5z"/>
	<polygon class="st6" points="199.2,67.1 203.4,67.1 203.4,67.8 198.4,67.8 198.4,60.1 203.2,60.1 203.2,60.8 199.2,60.8 
		199.2,63.5 203,63.5 203,64.1 199.2,64.1 	"/>
	<path class="st6" d="M210.9,61.3c-0.2-0.2-0.4-0.4-0.6-0.6c-0.3-0.1-0.6-0.2-0.9-0.2c-0.2,0-0.4,0-0.6,0.1
		c-0.2,0.1-0.4,0.2-0.5,0.3c-0.3,0.3-0.5,0.7-0.5,1.1c0,0.2,0,0.4,0.1,0.6c0.1,0.2,0.2,0.3,0.4,0.4c0.2,0.1,0.3,0.2,0.5,0.3l0.6,0.2
		c0.3,0.1,0.5,0.2,0.8,0.3c0.3,0.1,0.5,0.2,0.7,0.4c0.2,0.2,0.4,0.4,0.5,0.6c0.1,0.3,0.2,0.6,0.2,1c0,0.3-0.1,0.7-0.2,1
		c-0.1,0.3-0.3,0.5-0.6,0.7c-0.2,0.2-0.5,0.3-0.8,0.4c-0.3,0.1-0.6,0.1-0.9,0.1c-0.2,0-0.5,0-0.7-0.1c-0.2,0-0.4-0.1-0.7-0.2
		c-0.2-0.1-0.4-0.2-0.6-0.4c-0.2-0.1-0.3-0.3-0.5-0.5l0.7-0.5c0.2,0.3,0.4,0.5,0.7,0.7c0.3,0.2,0.7,0.3,1.1,0.3c0.2,0,0.4,0,0.6-0.1
		c0.2-0.1,0.4-0.2,0.6-0.3c0.2-0.1,0.3-0.3,0.4-0.5c0.1-0.2,0.2-0.4,0.2-0.6c0-0.2,0-0.5-0.2-0.7c-0.1-0.2-0.2-0.3-0.4-0.5
		c-0.2-0.1-0.4-0.2-0.6-0.3l-0.7-0.2c-0.3-0.1-0.5-0.2-0.8-0.3c-0.2-0.1-0.5-0.2-0.7-0.4c-0.2-0.2-0.4-0.4-0.5-0.6
		c-0.1-0.3-0.2-0.6-0.2-0.9c0-0.3,0.1-0.7,0.2-1c0.1-0.3,0.3-0.5,0.6-0.7c0.2-0.2,0.5-0.3,0.8-0.4c0.3-0.1,0.6-0.1,0.9-0.1
		c0.5,0,0.9,0.1,1.3,0.3c0.3,0.2,0.6,0.4,0.8,0.7L210.9,61.3z"/>
	<path class="st6" d="M215.5,67.8h-0.9l3.3-7.7h0.8l3.3,7.7h-0.9l-0.9-2h-4L215.5,67.8z M216.6,65.1h3.4l-1.7-4.1L216.6,65.1z"/>
	<path class="st6" d="M226.2,67.8h-0.8v-7.7h2.3c0.4,0,0.7,0,1,0.1c0.3,0.1,0.6,0.2,0.8,0.4c0.2,0.2,0.4,0.4,0.6,0.6
		c0.1,0.3,0.2,0.6,0.2,1c0,0.3,0,0.5-0.1,0.8c-0.1,0.2-0.2,0.4-0.4,0.6c-0.2,0.2-0.4,0.3-0.6,0.4c-0.2,0.1-0.5,0.2-0.8,0.2l2.3,3.7
		h-1l-2.1-3.6h-1.3L226.2,67.8z M226.2,63.5h1.4c0.5,0,1-0.1,1.5-0.3c0.3-0.2,0.5-0.6,0.5-1c0-0.2,0-0.4-0.1-0.6
		c-0.1-0.2-0.2-0.3-0.4-0.4c-0.2-0.1-0.4-0.2-0.6-0.2c-0.3-0.1-0.5-0.1-0.8-0.1h-1.4V63.5z"/>
	<rect x="234.2" y="60.1" class="st6" width="0.8" height="7.7"/>
	<path class="st6" d="M239.3,67.8h-0.9l3.3-7.7h0.8l3.3,7.7H245l-0.9-2h-4L239.3,67.8z M240.4,65.1h3.4l-1.7-4.1L240.4,65.1z"/>
	<polygon class="st6" points="250,67.1 253.6,67.1 253.6,67.8 249.2,67.8 249.2,60.1 250,60.1 	"/>
</g>
</svg>
